<svg width="512" height="512" viewBox="0 0 512 512" fill="none"
  xmlns="http://www.w3.org/2000/svg">
  <path d="M256 0.00274022C114.84 0.00274022 0 114.843 0 256C0 397.157 114.84 511.997 256 511.997C397.16 511.997 512 397.157 512 256C512 114.843 397.16 0.00274022 256 0.00274022ZM422.825 120.737C451.564 156.113 469.258 200.765 470.729 249.44C417.492 238.419 369.286 239.712 326.731 248.056C319.025 230.036 311.048 212.869 302.998 196.644C349.343 176.679 389.69 151.178 422.825 120.737ZM393.987 91.4276C361.096 121.45 322.979 143.678 283.95 160.089C255.304 107.705 227.896 68.2563 211.2 45.8385C225.657 42.7585 240.638 41.1061 256 41.1061C308.494 41.1061 356.627 60.052 393.987 91.4276ZM169.686 59.2628C182.293 75.6001 212.324 116.506 244.581 174.706C163.509 201.119 84.8428 205.569 47.0414 205.983C62.7977 140.162 108.891 86.0403 169.686 59.2628ZM41.3281 247.19C41.7336 247.19 42.1255 247.193 42.5392 247.193C68.6591 247.193 116.514 245.436 172.853 235.163C204.996 229.302 235.476 221.413 264.075 211.636C271.521 226.474 278.922 242.126 286.099 258.532C246.053 271.425 212.282 289.976 185.532 308.396C140.675 339.286 109.25 373.558 92.0907 394.749C60.3206 357.281 41.1034 308.856 41.1034 256C41.1034 253.046 41.2075 250.117 41.3281 247.19ZM121.71 423.589C136.482 404.989 166.551 371.133 210.046 341.427C239.605 321.237 270.186 306.237 301.669 296.391C319.935 343.737 335.53 396.05 344.827 451.597C317.732 463.95 287.672 470.894 256 470.894C205.218 470.894 158.527 453.151 121.71 423.589ZM382.642 429.464C373.06 378.45 358.769 330.482 342.249 286.644C382.886 279.788 424.886 281.202 468.022 290.891C458.719 347.587 427.171 396.867 382.642 429.464Z" fill="black"/>
</svg>
